<svg xmlns="http://www.w3.org/2000/svg" width="1400" height="560" viewBox="0 0 1400 560" role="img" aria-labelledby="p"><title id="p">AI Bookmark Organizer</title>
  <rect width="1400" height="560" fill="#FCFDFD"/>
  <rect x="0" y="0" width="1400" height="560" fill="#FCFDFD"/>
  <circle cx="1204" cy="100" r="168" fill="#E2E8F0"/>
  <circle cx="168" cy="526" r="145" fill="#E2E8F0"/>
  <g transform="translate(150,160) scale(1.87500)"><path fill="#111824" d="M30 8h68a22 22 0 0 1 22 22v68a22 22 0 0 1 -22 22h-68a22 22 0 0 1 -22-22v-68a22 22 0 0 1 22-22Z"/><path fill="#0F857A" d="M30 31a6 6 0 0 1 6-6h38a6 6 0 0 1 6 6v62L55 76L30 93Z"/><path fill="#3FE0CC" d="M48 42a6 6 0 0 1 6-6h38a6 6 0 0 1 6 6v62L73 87L48 104Z"/></g>
  <rect x="700" y="120" width="540" height="120" rx="30" fill="#FFFFFF" stroke="#E2E8F0"/>
  <rect x="750" y="156" width="40" height="48" rx="4" fill="#0B6E66"/>
  <rect x="820" y="163" width="270" height="15" rx="7" fill="#2DD4BF"/>
  <rect x="820" y="189" width="167" height="13" rx="6" fill="#E2E8F0"/>
  <rect x="700" y="260" width="540" height="120" rx="30" fill="#FFFFFF" stroke="#E2E8F0"/>
  <rect x="750" y="296" width="40" height="48" rx="4" fill="#0B6E66"/>
  <rect x="820" y="303" width="220" height="15" rx="7" fill="#2DD4BF"/>
  <rect x="820" y="329" width="136" height="13" rx="6" fill="#E2E8F0"/>
  <rect x="700" y="400" width="540" height="120" rx="30" fill="#FFFFFF" stroke="#E2E8F0"/>
  <rect x="750" y="436" width="40" height="48" rx="4" fill="#0B6E66"/>
  <rect x="820" y="443" width="300" height="15" rx="7" fill="#2DD4BF"/>
  <rect x="820" y="469" width="186" height="13" rx="6" fill="#E2E8F0"/>
</svg>
